<?xml version="1.0" encoding="utf-8"?>
<!-- Generator: Adobe Illustrator 19.2.1, SVG Export Plug-In . SVG Version: 6.00 Build 0)  -->
<svg version="1.1" id="Layer_1" xmlns="http://www.w3.org/2000/svg" xmlns:xlink="http://www.w3.org/1999/xlink" x="0px" y="0px"
	 viewBox="0 0 120 120" style="enable-background:new 0 0 120 120;" xml:space="preserve">
<style type="text/css">
	.st0{fill:#333333;}
</style>
<g>
	<path class="st0" d="M97.4,115.1H27.2c3.6-2.9,5.8-7.4,5.8-12.4c0,0,0,0,0,0c0,0,0,0,0,0l0-49.5c0-1-0.8-1.8-1.8-1.8c0,0,0,0,0,0
		c-1,0-1.8,0.8-1.8,1.8l0,39.3C26.5,89,22,86.7,17,86.7c-5,0-9.4,2.3-12.4,5.8V15.4c0-0.1,0-0.2,0-0.2C5.1,8.7,10.6,3.7,17,3.7
		c6.5,0,11.9,5,12.3,11.5l0,30.3c0,1,0.8,1.8,1.8,1.8c0,0,0,0,0,0c1,0,1.8-0.8,1.8-1.8l0-26.6h13.4c1,0,1.8-0.8,1.8-1.8
		c0-1-0.8-1.8-1.8-1.8H33v-0.1c0,0,0-0.1,0-0.1C32.5,6.6,25.4,0,17,0C8.8,0,1.8,6.4,1.1,14.5C1,14.7,1,14.9,1,15.1v87.7
		c0,8.8,7.2,16,16,16c0.1,0,80.3,0,80.3,0c1,0,1.8-0.8,1.8-1.8C99.2,115.9,98.4,115.1,97.4,115.1z M17,115.1
		c-6.8,0-12.4-5.5-12.4-12.4c0-6.8,5.5-12.4,12.4-12.4s12.4,5.5,12.4,12.4C29.4,109.6,23.9,115.1,17,115.1z"/>
	<path class="st0" d="M117,15.2H56.2c-1,0-1.8,0.8-1.8,1.8s0.8,1.8,1.8,1.8h58.9v96.2h-8c-1,0-1.8,0.8-1.8,1.8s0.8,1.8,1.8,1.8h9.8
		c1,0,1.8-0.8,1.8-1.8V17C118.8,16,118,15.2,117,15.2z"/>
	<path class="st0" d="M17,94c-4.8,0-8.7,3.9-8.7,8.7c0,4.8,3.9,8.7,8.7,8.7s8.7-3.9,8.7-8.7C25.7,97.9,21.8,94,17,94z M17,107.8
		c-2.8,0-5-2.3-5-5s2.3-5,5-5s5,2.3,5,5S19.8,107.8,17,107.8z"/>
	<path class="st0" d="M53.1,96.6L41.4,101c-0.8,0.3-1.2,1-1.2,1.9c0.1,0.8,0.7,1.5,1.5,1.7l11.8,2.4c0.1,0,0.2,0,0.4,0h52.4
		c1,0,1.8-0.8,1.8-1.8v-6.9c0-1-0.8-1.8-1.8-1.8H53.8v0C53.6,96.5,53.3,96.5,53.1,96.6z M51.9,102.9l-3.3-0.7l3.3-1.3V102.9z
		 M100.7,100.2h3.7v3.2h-3.7V100.2z M55.6,100.2H97v3.2H55.6V100.2z"/>
	<path class="st0" d="M75.4,26.5c-0.7-0.7-1.8-0.7-2.6,0L46.6,51.9c-0.4,0.3-0.6,0.8-0.6,1.3V89c0,1,0.8,1.8,1.8,1.8h52.4
		c1,0,1.8-0.8,1.8-1.8V53.3c0-0.5-0.2-1-0.6-1.3L75.4,26.5z M74.1,30.4l21.7,21.1H52.4L74.1,30.4z M79.9,87.2H68.3V69.8h11.5V87.2z
		 M98.5,87.2H83.5V68c0-1-0.8-1.8-1.8-1.8H66.5c-1,0-1.8,0.8-1.8,1.8v19.2H49.7V55.1h48.7V87.2z"/>
	<path class="st0" d="M74.1,37.2c-3.4,0-6.2,2.8-6.2,6.2s2.8,6.2,6.2,6.2c3.4,0,6.2-2.8,6.2-6.2C80.3,40,77.5,37.2,74.1,37.2z
		 M74.1,46c-1.4,0-2.6-1.2-2.6-2.6c0-1.4,1.2-2.6,2.6-2.6c1.4,0,2.6,1.2,2.6,2.6C76.7,44.9,75.5,46,74.1,46z"/>
</g>
</svg>
