<?xml version="1.0" encoding="utf-8"?>
<!-- Generator: Adobe Illustrator 19.2.1, SVG Export Plug-In . SVG Version: 6.00 Build 0)  -->
<svg version="1.1" id="Layer_1" xmlns="http://www.w3.org/2000/svg" xmlns:xlink="http://www.w3.org/1999/xlink" x="0px" y="0px"
	 viewBox="0 0 120 120" style="enable-background:new 0 0 120 120;" xml:space="preserve">
<style type="text/css">
	.st0{fill:#424242;}
</style>
<g>
	<path class="st0" d="M118.2,46h-4.3C109.1,24.4,91.4,7.6,69.6,3.9V2.1c0-1-0.8-1.8-1.8-1.8H54.4c-1,0-1.8,0.8-1.8,1.8v1.7
		c-11,1.6-21,6.5-29.2,14.1C15.2,25.5,9.7,35.2,7.3,46H4c-1,0-1.8,0.8-1.8,1.8v10.3C2.1,59.2,3,60,4,60h9.8c0.1,0,0.1,0.1,0.2,0.1
		c0.4,0.3,0.8,0.5,1.2,0.8C28.8,70,44.6,74.8,61.1,74.8c16.5,0,32.5-4.8,46.2-14c0.4-0.2,0.7-0.5,1-0.7c0,0,0,0,0.1-0.1h9.8
		c1,0,1.8-0.8,1.8-1.8V47.9C120,46.8,119.2,46,118.2,46z M69.6,7.7C89.4,11.2,105.4,26.4,110,46H69.6V7.7z M56.3,3.9h9.6V46h-9.6
		V3.9z M61.1,71.1c-14.3,0-28.2-3.8-40.5-11.1h80.9C89.3,67.3,75.4,71.1,61.1,71.1z M5.8,56.4v-6.6h33.6c1,0,1.8-0.8,1.8-1.8
		c0-1-0.8-1.8-1.8-1.8H11.1c4.7-20.1,21-35.3,41.5-38.5V46h-3.3c-1,0-1.8,0.8-1.8,1.8c0,1,0.8,1.8,1.8,1.8h67.1v6.6H5.8z"/>
	<path class="st0" d="M106.6,79.5h-8.1c-1,0-1.8,0.8-1.8,1.8c0,1,0.8,1.8,1.8,1.8h8.1c1,0,1.8,0.8,1.8,1.8v29c0,1-0.8,1.8-1.8,1.8
		H87.1c-11.2,0-20.3-9.1-20.3-20.3v-6.4c0-1-0.8-1.8-1.8-1.8h-7.9c-1,0-1.8,0.8-1.8,1.8v6.4c0,11.2-9.1,20.3-20.3,20.3H15.5
		c-1,0-1.8-0.8-1.8-1.8V85c0-1,0.8-1.8,1.8-1.8h73.1c1,0,1.8-0.8,1.8-1.8c0-1-0.8-1.8-1.8-1.8H15.5C12.5,79.5,10,82,10,85v29
		c0,3.1,2.5,5.5,5.5,5.5H35c13.2,0,24-10.8,24-24v-4.6h4.2v4.6c0,13.2,10.8,24,24,24h19.4c3.1,0,5.5-2.5,5.5-5.5V85
		C112.1,82,109.6,79.5,106.6,79.5z"/>
	<path class="st0" d="M19.2,86.9c-1,0-1.8,0.8-1.8,1.8v21.7c0,1,0.8,1.8,1.8,1.8H35c9.2,0,16.6-7.5,16.6-16.6v-6.9
		c0-1-0.8-1.8-1.8-1.8H19.2z M47.9,95.6c0,7.1-5.8,12.9-12.9,12.9H21.1v-18h26.8V95.6z"/>
	<path class="st0" d="M70.5,88.7v6.9c0,9.2,7.5,16.6,16.6,16.6h15.7c1,0,1.8-0.8,1.8-1.8V88.7c0-1-0.8-1.8-1.8-1.8H72.4
		C71.4,86.9,70.5,87.7,70.5,88.7z M74.2,90.6h26.8v18H87.1c-7.1,0-12.9-5.8-12.9-12.9V90.6z"/>
	<path class="st0" d="M81.5,103.6c0.5,0,0.9-0.2,1.3-0.5l7.1-7.1c0.7-0.7,0.7-1.9,0-2.6c-0.7-0.7-1.9-0.7-2.6,0l-7.1,7.1
		C79,101.6,79.9,103.6,81.5,103.6z"/>
	<path class="st0" d="M88.1,103.1c0.7,0.7,1.9,0.7,2.6,0l7.1-7.1c0.7-0.7,0.7-1.9,0-2.6c-0.7-0.7-1.9-0.7-2.6,0l-7.1,7.1
		C87.3,101.2,87.3,102.3,88.1,103.1z"/>
	<path class="st0" d="M26.1,103.6c0.5,0,0.9-0.2,1.3-0.5l7.1-7.1c0.7-0.7,0.7-1.9,0-2.6c-0.7-0.7-1.9-0.7-2.6,0l-7.1,7.1
		C23.7,101.6,24.5,103.6,26.1,103.6z"/>
	<path class="st0" d="M32.7,103.1c0.7,0.7,1.9,0.7,2.6,0l7.1-7.1c0.7-0.7,0.7-1.9,0-2.6c-0.7-0.7-1.9-0.7-2.6,0l-7.1,7.1
		C32,101.2,32,102.3,32.7,103.1z"/>
</g>
</svg>
